<?xml version="1.0" standalone="no"?>
<!DOCTYPE svg PUBLIC "-//W3C//DTD SVG 20010904//EN"
 "http://www.w3.org/TR/2001/REC-SVG-20010904/DTD/svg10.dtd">
<svg version="1.0" xmlns="http://www.w3.org/2000/svg"
 width="16.000000pt" height="16.000000pt" viewBox="0 0 16.000000 16.000000"
 preserveAspectRatio="xMidYMid meet">
<metadata>
Created by potrace 1.11, written by Peter Selinger 2001-2013
</metadata>
<g transform="translate(0.000000,16.000000) scale(0.002516,-0.002516)"
fill="#000000" stroke="none">
<path d="M2653 6149 c-229 -469 -301 -618 -314 -646 -7 -18 -19 -33 -26 -33
-7 0 -39 14 -70 31 -105 57 -251 129 -262 129 -6 0 -11 4 -11 8 0 7 -56 32
-72 32 -9 0 1 -86 23 -190 5 -25 11 -61 14 -80 2 -19 9 -54 15 -77 5 -24 9
-46 8 -50 0 -5 1 -15 4 -23 5 -14 21 -88 32 -150 2 -14 9 -45 14 -70 6 -25 13
-61 16 -80 3 -19 8 -46 11 -60 3 -14 10 -47 15 -75 5 -27 12 -61 15 -75 3 -14
7 -38 10 -55 2 -16 6 -39 8 -50 3 -11 8 -41 11 -67 3 -27 9 -68 12 -93 4 -35
2 -45 -8 -45 -19 0 -335 315 -495 493 -22 26 -43 47 -45 47 -3 0 -31 -43 -63
-95 -32 -52 -73 -111 -90 -131 l-32 -36 -74 6 c-84 6 -142 13 -179 20 -52 10
-227 37 -273 42 l-49 5 5 -33 c3 -18 12 -59 21 -90 21 -76 47 -169 51 -188 3
-8 14 -49 25 -90 42 -150 62 -248 55 -270 -3 -10 -62 -55 -130 -101 -69 -45
-125 -83 -125 -84 0 -2 75 -66 168 -143 92 -77 178 -149 192 -161 14 -12 39
-33 55 -46 98 -79 182 -150 197 -166 9 -11 20 -19 25 -19 4 0 26 -17 48 -38
22 -20 65 -57 95 -82 30 -25 57 -47 60 -50 3 -3 18 -16 35 -29 100 -76 135
-115 135 -146 0 -33 -30 -133 -60 -200 -10 -22 -29 -73 -44 -113 -30 -85 -26
-91 57 -73 29 6 61 13 72 15 11 3 31 7 45 10 64 15 80 17 82 15 2 -1 12 3 24
9 11 6 32 13 45 15 13 3 44 11 69 18 25 7 50 13 55 15 6 1 30 7 55 14 25 7 52
14 60 16 8 2 80 22 160 45 222 63 229 64 266 44 45 -24 58 -60 50 -142 -7 -76
-6 -69 -36 -253 -12 -74 -24 -144 -25 -155 -2 -11 -4 -20 -5 -20 -1 0 -3 -9
-4 -20 -2 -11 -6 -38 -11 -60 -4 -22 -8 -51 -10 -65 -2 -14 -4 -25 -5 -25 -1
0 -3 -9 -5 -20 -2 -11 -6 -39 -10 -63 l-7 -42 186 0 c102 0 186 4 186 9 0 4
-5 33 -11 62 -5 30 -12 68 -15 84 -9 54 -11 69 -34 195 -12 69 -24 136 -26
150 -1 14 -6 41 -10 60 -10 52 -12 67 -20 160 l-7 86 32 32 c51 50 82 50 244
2 78 -23 153 -46 167 -50 35 -13 115 -33 115 -29 0 1 10 -3 21 -9 12 -6 36
-14 54 -17 18 -3 40 -10 49 -14 9 -5 21 -10 26 -10 10 -2 76 -18 108 -27 16
-5 17 48 17 1010 l0 1016 -144 -145 c-80 -80 -150 -145 -155 -145 -16 0 -17
24 -6 110 3 30 10 73 15 95 5 22 11 60 15 85 3 25 8 52 10 60 4 14 13 60 21
105 3 19 5 32 19 100 3 14 7 37 10 53 3 15 8 38 11 52 10 41 14 63 20 100 3
19 8 38 9 41 2 3 7 28 11 55 3 27 8 52 10 55 3 6 11 48 19 99 2 14 6 34 8 45
20 96 30 185 20 185 -5 0 -33 -11 -61 -25 -29 -14 -55 -25 -58 -24 -4 0 -10
-3 -13 -8 -3 -4 -55 -33 -116 -63 -60 -30 -113 -59 -117 -65 -4 -5 -8 -6 -8
-1 0 5 -8 2 -19 -8 -23 -21 -25 -19 -91 119 -29 61 -79 164 -111 230 -33 65
-59 123 -59 128 0 5 -9 21 -19 35 -10 15 -19 30 -20 35 0 4 -25 57 -54 119
l-54 111 -50 -104z"/>
<path d="M4310 5344 c-68 -14 -129 -37 -183 -66 -59 -33 -74 -45 -152 -124
-81 -81 -134 -174 -164 -284 -19 -73 -20 -107 -20 -1558 l-1 -1482 -49 -49
c-52 -52 -131 -154 -131 -170 0 -5 -6 -16 -13 -23 -31 -30 -122 -262 -116
-295 1 -4 0 -10 -1 -13 -18 -47 -21 -258 -5 -350 20 -109 77 -280 94 -280 4 0
8 -6 8 -13 0 -14 52 -98 68 -109 5 -4 7 -8 2 -8 -14 0 127 -149 190 -200 99
-80 292 -171 398 -187 17 -2 48 -8 70 -13 58 -13 238 -9 323 7 196 37 372 132
519 279 79 80 191 248 185 277 -1 4 2 7 7 7 14 0 49 114 76 240 12 61 14 264
2 331 -23 125 -87 283 -159 387 -41 60 -53 74 -108 131 l-45 46 -5 1500 c-3
825 -9 1511 -13 1525 -5 14 -9 30 -11 35 -48 166 -183 328 -336 402 -47 23
-98 45 -115 48 -128 27 -220 30 -315 9z m224 -326 c116 -33 213 -140 233 -256
3 -21 6 -726 7 -1569 0 -842 3 -1533 6 -1535 3 -2 24 -17 48 -32 63 -43 153
-143 188 -211 61 -116 78 -179 78 -300 1 -126 -5 -171 -33 -244 -24 -64 -98
-191 -111 -191 -6 0 -10 -6 -11 -12 0 -18 -109 -107 -176 -146 -90 -50 -221
-84 -328 -85 -124 0 -288 59 -400 145 -89 68 -178 199 -216 318 -35 105 -34
311 0 395 63 153 156 277 253 339 l45 28 1 1546 c0 851 3 1554 5 1562 16 60
46 117 82 155 37 40 108 85 143 91 15 3 29 7 31 10 9 9 115 4 155 -8z"/>
<path d="M4378 3376 c-37 -19 -63 -45 -81 -81 -13 -26 -15 -138 -15 -885 -1
-470 -4 -855 -9 -855 -10 -1 -84 -36 -102 -50 -99 -72 -192 -212 -208 -311
-27 -181 16 -324 136 -444 104 -104 216 -148 361 -145 116 3 236 48 297 112
12 13 26 23 30 23 19 1 89 112 124 195 18 43 27 108 23 178 -3 73 -5 87 -18
122 -5 11 -13 34 -19 50 -37 103 -138 206 -254 260 l-33 15 -1 833 c-1 457 -1
840 0 849 2 19 -24 74 -48 101 -37 43 -131 60 -183 33z"/>
</g>
</svg>
