<?xml version="1.0" standalone="no"?>
<!DOCTYPE svg PUBLIC "-//W3C//DTD SVG 20010904//EN"
 "http://www.w3.org/TR/2001/REC-SVG-20010904/DTD/svg10.dtd">
<svg version="1.0" xmlns="http://www.w3.org/2000/svg"
 width="210.000000pt" height="210.000000pt" viewBox="0 0 210.000000 210.000000"
 preserveAspectRatio="xMidYMid meet">
<metadata>
Created by potrace 1.11, written by Peter Selinger 2001-2013
</metadata>
<g transform="translate(0.000000,210.000000) scale(0.100000,-0.100000)"
fill="#000000" stroke="none">
<path d="M637 1702 c-16 -17 -17 -76 -17 -714 0 -649 1 -696 18 -710 20 -18
49 -16 69 5 12 12 15 66 15 309 l0 294 191 2 c106 1 209 4 230 8 160 23 300
149 337 304 55 230 -80 453 -308 506 -34 8 -140 13 -286 14 -215 1 -234 -1
-249 -18z m543 -102 c253 -94 289 -421 61 -564 -60 -39 -109 -46 -323 -49
l-196 -2 0 317 1 317 211 -3 c141 -2 223 -8 246 -16z"/>
</g>
</svg>
