<?xml version="1.0" standalone="no"?>
<!DOCTYPE svg PUBLIC "-//W3C//DTD SVG 20010904//EN"
 "http://www.w3.org/TR/2001/REC-SVG-20010904/DTD/svg10.dtd">
<svg version="1.0" xmlns="http://www.w3.org/2000/svg"
 width="252.000000pt" height="252.000000pt" viewBox="0 0 252.000000 252.000000"
 preserveAspectRatio="xMidYMid meet">
<metadata>
Created by potrace 1.11, written by Peter Selinger 2001-2013
</metadata>
<g transform="translate(0.000000,252.000000) scale(0.100000,-0.100000)"
fill="#000000" stroke="none">
<path d="M0 2413 c1 -43 7 -96 15 -118 8 -22 15 -48 15 -58 0 -10 21 -38 46
-62 67 -63 84 -92 73 -123 -6 -16 -6 -29 2 -38 12 -14 -2 -20 -15 -7 -4 4 -18
9 -32 10 l-26 4 18 -31 c18 -29 83 -80 103 -80 14 0 77 -56 101 -89 15 -22 17
-34 10 -67 -9 -38 -8 -39 48 -92 31 -30 67 -60 80 -69 12 -8 22 -23 22 -32 0
-10 6 -25 13 -36 13 -17 15 -17 35 3 12 12 22 28 22 35 0 25 -60 99 -76 93
-15 -6 -39 29 -29 44 3 5 -6 33 -20 61 -14 29 -25 61 -25 71 0 21 -27 78 -36
78 -4 0 -3 -8 1 -17 4 -12 3 -14 -3 -8 -5 6 -15 26 -21 46 -7 20 -21 45 -31
54 -11 10 -20 25 -20 34 0 21 -85 159 -115 187 -17 16 -24 37 -29 93 -8 84 1
106 33 77 11 -10 25 -15 31 -11 6 4 19 0 28 -8 9 -7 25 -17 35 -20 13 -5 17
-13 12 -28 -4 -12 -3 -31 2 -43 6 -11 15 -36 22 -53 27 -78 37 -100 64 -140
15 -24 41 -50 56 -58 16 -8 34 -28 41 -45 14 -33 68 -94 85 -95 6 0 9 -21 7
-47 -3 -46 -2 -47 42 -73 25 -15 55 -42 66 -61 12 -19 25 -34 29 -34 10 0 43
-33 61 -61 8 -12 31 -41 51 -63 20 -23 41 -50 47 -61 l11 -20 2 20 c1 11 5 4
8 -15 4 -19 3 -38 -2 -41 -4 -3 2 -18 14 -32 18 -23 19 -32 10 -58 -6 -17 -8
-35 -5 -40 3 -5 1 -9 -4 -9 -15 0 -20 -35 -9 -56 17 -30 74 -81 111 -98 19 -9
40 -26 49 -39 15 -23 111 -67 147 -67 11 0 31 -11 46 -25 69 -64 71 6 5 141
-80 161 -81 264 -8 416 58 120 124 195 207 234 33 16 60 32 60 35 0 3 -15 12
-32 20 -25 11 -37 25 -48 59 -8 25 -32 70 -52 101 -20 31 -44 71 -52 88 -9 17
-21 31 -26 31 -5 0 -17 8 -27 19 -22 22 -93 33 -114 17 -8 -6 -20 -23 -26 -38
-15 -32 -23 -34 -66 -12 -47 24 -65 43 -72 75 -7 30 -112 146 -152 167 -12 7
-47 12 -77 12 -45 0 -57 -4 -66 -20 -10 -19 -19 -20 -119 -17 -107 4 -108 5
-247 67 -76 34 -146 71 -156 81 -13 15 -30 19 -82 19 l-66 0 0 -77z"/>
<path d="M1846 1703 c-3 -4 -32 -10 -64 -14 -42 -5 -74 -17 -122 -47 -49 -31
-80 -43 -123 -48 -69 -8 -107 -31 -161 -99 -23 -28 -60 -65 -83 -83 -49 -38
-60 -67 -45 -125 l11 -42 -3 43 c-2 23 -1 40 3 38 4 -3 20 6 37 20 16 14 22
22 14 18 -8 -4 -23 -14 -32 -22 -10 -8 -18 -10 -18 -5 0 15 63 61 95 69 25 6
28 5 22 -16 -3 -12 -3 -19 0 -16 4 3 11 2 17 -3 6 -4 19 -11 28 -14 12 -4 15
-2 11 9 -3 8 -12 13 -20 10 -8 -3 -16 2 -20 12 -3 9 -15 25 -25 35 -17 17 -17
19 -1 41 10 13 21 22 26 19 4 -2 6 1 5 8 -2 9 13 11 55 10 53 -2 130 15 179
40 30 15 39 10 32 -18 -4 -16 -7 -32 -8 -38 -2 -15 -27 -24 -76 -24 -64 -2
-120 -12 -120 -23 0 -11 147 -6 173 6 12 6 17 4 17 -8 0 -20 -39 -36 -86 -36
-19 0 -34 -4 -34 -10 0 -13 45 -13 88 -1 l32 10 0 -54 c0 -55 -13 -72 -49 -60
-9 2 -23 0 -31 -5 -12 -8 -12 -11 2 -27 14 -15 14 -22 4 -41 -11 -21 -14 -22
-25 -8 -8 9 -21 16 -30 15 -11 0 -9 -3 7 -9 12 -6 22 -18 22 -30 0 -27 -3 -26
-46 14 -54 50 -150 73 -162 39 -2 -8 7 -13 25 -13 15 -1 42 -7 58 -15 l30 -13
-33 -1 c-37 -1 -66 -14 -99 -44 -27 -24 -31 -8 -9 36 12 22 12 27 1 27 -7 0
-16 -8 -20 -17 -6 -15 -10 -11 -21 17 l-14 35 6 -50 c7 -64 13 -85 25 -85 6 0
8 -4 4 -10 -8 -12 6 -65 14 -52 3 5 13 12 21 15 12 4 11 6 -2 6 -24 1 -22 13
6 40 15 14 26 19 31 12 9 -16 44 -13 61 4 10 10 11 15 3 15 -9 0 -8 4 1 15 16
20 34 19 26 -1 -3 -9 -2 -12 5 -9 5 4 16 2 24 -5 10 -9 16 -7 24 7 9 15 12 15
20 4 6 -9 11 -10 15 -2 11 18 29 13 22 -6 -4 -10 -4 -14 0 -10 10 10 35 -13
27 -26 -3 -5 -1 -7 4 -4 6 4 18 -2 28 -13 9 -10 30 -23 46 -29 36 -12 39 6 8
50 -27 38 -1 27 31 -14 14 -17 19 -27 11 -23 -10 6 -12 5 -7 -3 4 -6 11 -9 16
-6 8 5 77 -75 73 -85 -2 -3 1 -5 7 -5 12 0 45 -45 33 -45 -4 0 0 -5 10 -11 31
-18 56 -81 50 -126 -3 -22 0 -50 6 -62 7 -11 8 -21 3 -21 -16 0 -30 23 -35 55
l-4 30 -2 -31 c-1 -20 7 -38 22 -52 13 -12 25 -20 28 -18 2 2 10 -3 18 -11 12
-13 11 -14 -9 -8 -19 6 -29 1 -54 -28 -17 -20 -53 -45 -79 -56 -59 -25 -137
-29 -137 -6 0 24 -29 29 -50 10 -11 -10 -20 -23 -20 -28 0 -6 7 -2 15 9 16 19
16 19 13 -1 -3 -13 -11 -20 -26 -19 -12 0 -22 -4 -22 -9 0 -6 -9 -2 -20 8 -21
19 -29 8 -8 -13 9 -9 7 -13 -6 -18 -11 -4 -27 2 -45 20 -26 25 -27 29 -19 79
5 28 10 65 11 82 2 34 22 42 122 44 33 1 87 8 120 17 33 8 69 17 80 20 15 4
24 -1 31 -18 5 -13 9 -17 7 -10 -2 8 -3 24 -3 36 0 19 -8 24 -58 34 -92 19
-202 10 -250 -21 -8 -5 -20 -3 -30 5 -15 12 -16 11 -3 -4 10 -13 10 -18 2 -18
-15 0 -35 -19 -44 -43 -4 -10 -11 -16 -16 -12 -6 3 -8 -29 -6 -82 2 -52 0 -81
-5 -73 -5 8 -6 18 -4 22 3 5 0 7 -8 6 -7 -2 -12 2 -11 8 1 6 -5 11 -13 11 -8
0 -14 -3 -14 -7 0 -16 104 -111 150 -137 30 -17 50 -35 50 -45 0 -21 11 -23
29 -6 11 11 12 6 9 -26 -4 -37 -2 -40 56 -83 l59 -44 41 39 c23 22 68 57 101
79 94 63 292 273 322 341 40 93 46 102 60 102 8 0 12 4 8 9 -3 5 -1 12 5 16 5
3 10 11 10 16 0 6 -4 8 -9 4 -10 -5 -51 40 -51 57 0 10 50 -19 67 -40 9 -10
13 1 18 53 5 43 11 62 16 54 6 -10 9 -5 10 16 1 17 1 36 0 44 -2 7 2 10 9 6 7
-5 30 12 58 40 44 47 45 47 57 25 10 -20 13 -20 18 -5 4 9 7 30 7 46 0 17 5
39 10 50 7 13 7 19 1 19 -13 0 -3 58 15 87 8 12 14 40 14 62 l0 39 -62 -4
c-35 -3 -86 -12 -114 -21 l-51 -16 8 -41 c4 -23 5 -53 2 -67 -4 -21 -1 -28 16
-34 12 -3 22 -9 22 -13 1 -4 3 -16 5 -27 1 -11 6 -31 9 -45 5 -21 4 -20 -8 5
-19 39 -65 82 -99 90 -22 6 -30 1 -52 -31 -14 -21 -26 -46 -26 -55 0 -22 -29
-79 -41 -79 -19 0 -39 49 -50 123 -8 52 -19 89 -35 110 -52 71 -86 151 -91
211 -5 52 -12 68 -47 113 -42 54 -48 58 -60 46z m-43 -407 c44 -30 97 -88 91
-98 -3 -5 -28 -8 -55 -8 -47 0 -49 1 -34 17 14 14 20 14 37 4 15 -10 23 -10
32 -1 8 9 7 11 -4 8 -8 -2 -14 2 -13 7 1 6 -25 12 -60 14 -84 5 -98 5 -127 -5
-23 -7 -24 -6 -11 9 7 9 19 17 27 17 23 0 64 23 64 36 0 7 -8 15 -17 17 -12 3
-9 5 8 6 14 0 42 -10 62 -23z m442 -57 c-6 -18 -4 -20 13 -15 11 4 23 2 27 -4
3 -5 1 -10 -5 -10 -6 0 -5 -11 5 -30 22 -43 18 -61 -5 -22 -12 19 -28 32 -40
32 -24 0 -26 -17 -4 -48 15 -22 15 -22 -20 -16 -27 4 -36 2 -36 -9 0 -8 6 -17
14 -20 17 -7 24 -35 16 -67 -6 -24 -7 -24 -24 13 -10 20 -22 40 -27 42 -10 7
10 65 23 65 6 0 8 7 4 15 -3 8 -1 26 3 39 18 45 70 79 56 35z m-545 -27 c0 -5
10 -8 21 -8 12 1 24 -5 27 -13 3 -10 -3 -13 -26 -9 -17 2 -29 1 -26 -4 3 -4
13 -8 23 -8 11 0 29 -9 42 -20 l24 -20 -40 6 c-22 3 -46 13 -52 22 -15 19 -17
62 -3 62 6 0 10 -4 10 -8z m607 -144 c-2 -13 -4 -5 -4 17 -1 22 1 32 4 23 2
-10 2 -28 0 -40z m-29 -83 c-12 -27 -38 -34 -38 -10 0 12 20 27 47 34 2 1 -3
-10 -9 -24z m-553 -613 c-17 -12 -17 -42 0 -48 8 -3 15 -13 15 -21 0 -12 -6
-11 -31 4 -17 10 -35 24 -41 31 -15 18 8 42 41 42 14 0 22 -4 16 -8z"/>
<path d="M1338 1363 c7 -3 16 -2 19 1 4 3 -2 6 -13 5 -11 0 -14 -3 -6 -6z"/>
<path d="M1286 1311 c2 -2 -1 -10 -8 -18 -21 -25 0 -25 28 0 l27 25 -26 -1
c-14 -1 -23 -4 -21 -6z"/>
<path d="M2268 1273 c7 -3 16 -2 19 1 4 3 -2 6 -13 5 -11 0 -14 -3 -6 -6z"/>
<path d="M2290 1256 c0 -2 8 -10 18 -17 15 -13 16 -12 3 4 -13 16 -21 21 -21
13z"/>
<path d="M1416 1089 c-15 -16 -39 -32 -52 -35 -13 -3 -24 -10 -24 -14 0 -16
31 -32 52 -27 22 6 22 6 4 -8 -11 -8 -26 -15 -35 -15 -8 0 -12 -3 -8 -6 11
-12 47 8 69 38 12 18 16 28 7 23 -8 -5 -6 1 5 13 10 12 22 19 26 17 4 -3 10 2
14 10 3 8 10 15 16 15 17 0 11 -26 -10 -45 -14 -12 -20 -31 -20 -57 0 -31 -8
-49 -35 -81 -20 -23 -46 -45 -58 -49 l-22 -6 23 -1 c17 -1 22 -7 22 -29 0 -15
7 -37 15 -48 8 -12 12 -23 10 -26 -2 -2 5 -4 15 -5 22 -2 27 13 8 19 -7 3 -3
13 12 28 14 14 17 21 8 17 -17 -6 -15 11 10 74 5 14 8 37 5 51 -3 14 0 29 6
32 10 7 16 -18 12 -50 -1 -7 10 -15 24 -18 14 -4 23 -11 20 -16 -3 -5 8 -7 24
-5 29 4 30 2 26 -28 -4 -27 -3 -28 3 -7 6 21 16 26 53 30 24 3 59 16 78 29 26
19 35 21 41 10 5 -7 6 -17 3 -23 -4 -5 -1 -6 7 -1 10 6 12 4 7 -9 -4 -9 -3
-15 2 -12 4 3 14 -6 21 -19 17 -32 26 -32 33 0 3 18 -1 29 -15 36 -10 5 -15
15 -12 21 4 7 3 8 -5 4 -13 -8 -43 53 -34 68 4 5 1 6 -5 2 -7 -4 -13 -2 -13 3
-1 6 -2 16 -3 23 0 6 -8 13 -16 14 -48 10 -55 9 -56 -13 -1 -12 4 -21 9 -20 6
1 13 -6 15 -15 3 -15 -3 -18 -33 -18 -19 0 -47 -7 -60 -16 -17 -11 -36 -14
-59 -10 -42 8 -57 34 -16 28 15 -2 30 0 33 5 3 4 -9 8 -26 8 -30 0 -32 2 -29
30 4 33 22 58 29 39 2 -6 10 -20 18 -30 15 -18 15 -18 8 1 -10 31 -24 45 -45
45 -10 0 -16 5 -13 10 13 20 -5 45 -33 47 -20 1 -36 -7 -56 -28z m74 -75 c0
-14 -4 -23 -10 -19 -5 3 -10 15 -10 26 0 10 5 19 10 19 6 0 10 -12 10 -26z
m75 -114 c3 -5 1 -10 -4 -10 -6 0 -11 5 -11 10 0 6 2 10 4 10 3 0 8 -4 11 -10z"/>
<path d="M1364 1084 c-18 -14 -18 -14 6 -3 31 14 36 19 24 19 -6 0 -19 -7 -30
-16z"/>
<path d="M1315 915 c3 -38 5 -83 5 -99 0 -16 3 -26 8 -22 9 10 10 176 0 170
-3 -2 -9 2 -12 8 -4 7 -4 -18 -1 -57z"/>
<path d="M1270 938 c0 -18 18 -34 28 -24 3 4 -2 14 -11 23 -16 16 -17 16 -17
1z"/>
<path d="M1480 901 c0 -6 4 -13 10 -16 6 -3 7 1 4 9 -7 18 -14 21 -14 7z"/>
<path d="M67 758 c-42 -105 -42 -108 -23 -108 7 0 19 14 26 30 11 26 18 30 50
30 32 0 39 -4 50 -30 8 -18 20 -30 31 -30 18 0 18 2 -2 53 -12 28 -29 72 -39
97 -11 29 -24 46 -37 48 -16 2 -26 -14 -56 -90z m70 2 c11 -29 10 -30 -17 -30
-28 0 -29 1 -19 30 6 17 14 30 18 30 4 0 12 -13 18 -30z"/>
<path d="M240 750 c0 -82 3 -100 15 -100 12 0 15 15 16 73 l1 72 25 -67 c33
-87 51 -89 80 -10 l22 57 0 -62 c1 -56 3 -63 21 -63 19 0 20 7 20 101 0 98 -1
100 -22 97 -17 -2 -28 -19 -49 -73 -16 -42 -29 -64 -33 -55 -3 8 -15 41 -26
73 -18 48 -25 57 -46 57 -24 0 -24 -1 -24 -100z"/>
<path d="M490 750 l0 -100 60 0 c33 0 60 4 60 10 0 6 -20 10 -45 10 l-45 0 0
90 c0 73 -3 90 -15 90 -12 0 -15 -18 -15 -100z"/>
<path d="M655 825 c-20 -19 -25 -34 -25 -75 0 -69 29 -100 94 -100 37 0 48 5
70 31 18 21 26 42 26 69 0 27 -8 48 -26 69 -22 26 -33 31 -70 31 -34 0 -51 -6
-69 -25z m103 -11 c18 -12 22 -25 22 -64 0 -42 -4 -52 -25 -66 -70 -46 -131
83 -62 131 27 19 37 19 65 -1z"/>
<path d="M1852 836 c7 -8 15 -12 17 -11 5 6 -10 25 -20 25 -5 0 -4 -6 3 -14z"/>
<path d="M2290 775 c0 -9 -17 -34 -38 -58 -98 -109 -162 -203 -253 -370 -109
-200 -119 -214 -119 -174 0 35 -29 63 -81 77 -104 28 -179 -43 -179 -170 l0
-61 100 3 c55 2 100 1 100 -2 0 -3 157 -4 350 -2 l350 3 0 313 0 314 -24 6
c-13 3 -56 35 -96 71 -70 63 -110 81 -110 50z"/>
<path d="M1047 724 c-9 -10 4 -67 19 -83 7 -8 17 -12 21 -8 3 4 1 13 -5 19
-16 16 -15 45 1 51 9 4 8 8 -3 16 -17 12 -24 13 -33 5z"/>
<path d="M1850 723 c0 -5 10 -18 23 -29 l22 -19 -20 25 c-11 14 -21 27 -22 29
-2 2 -3 0 -3 -6z"/>
<path d="M843 704 c-7 -19 1 -64 12 -67 6 -1 11 10 13 26 4 34 22 36 22 2 0
-14 5 -25 10 -25 6 0 10 11 10 24 0 38 18 41 22 4 2 -18 8 -32 13 -31 15 3 19
53 5 67 -16 16 -101 16 -107 0z"/>
<path d="M982 708 c-18 -18 -14 -56 7 -68 21 -11 54 -3 46 11 -3 4 -12 6 -19
3 -8 -3 -17 -1 -21 5 -4 7 4 11 19 11 30 0 33 12 10 34 -19 19 -26 20 -42 4z"/>
<path d="M1103 704 c-7 -19 1 -64 12 -67 6 -1 11 13 13 31 2 17 7 32 13 32 5
0 9 4 9 9 0 14 -41 9 -47 -5z"/>
<path d="M1166 704 c-21 -20 -20 -27 3 -55 16 -20 23 -22 38 -13 22 14 29 50
13 70 -16 18 -35 18 -54 -2z m42 -26 c-5 -32 -28 -35 -28 -4 0 17 5 26 16 26
10 0 14 -7 12 -22z"/>
<path d="M1595 631 c-3 -5 14 -9 39 -8 24 1 39 5 33 9 -17 11 -65 10 -72 -1z"/>
<path d="M1539 593 c-13 -16 -12 -17 4 -4 16 13 21 21 13 21 -2 0 -10 -8 -17
-17z"/>
<path d="M1678 583 c6 -2 18 -2 25 0 6 3 1 5 -13 5 -14 0 -19 -2 -12 -5z"/>
<path d="M630 520 c0 -34 -5 -70 -11 -82 -6 -11 -8 -31 -5 -45 6 -20 12 -24
38 -21 40 4 56 28 40 60 -6 13 -13 50 -14 83 -3 54 -5 60 -25 63 -22 3 -23 0
-23 -58z m40 40 c0 -5 -7 -7 -15 -4 -8 4 -15 8 -15 10 0 2 7 4 15 4 8 0 15 -4
15 -10z m0 -30 c0 -5 -7 -7 -15 -4 -8 4 -15 8 -15 10 0 2 7 4 15 4 8 0 15 -4
15 -10z m0 -32 c0 -6 -6 -5 -15 2 -8 7 -15 14 -15 16 0 2 7 1 15 -2 8 -4 15
-11 15 -16z m0 -30 c0 -6 -6 -5 -15 2 -8 7 -15 14 -15 16 0 2 7 1 15 -2 8 -4
15 -11 15 -16z m0 -23 c0 -2 -7 -5 -15 -9 -9 -3 -15 0 -15 9 0 9 6 12 15 9 8
-4 15 -7 15 -9z"/>
<path d="M170 520 c0 -51 19 -72 21 -22 0 26 1 26 9 5 11 -27 25 -29 39 -5 9
15 10 15 11 -5 0 -14 6 -23 15 -23 11 0 15 12 15 50 0 42 -3 50 -19 50 -12 0
-21 -11 -28 -32 l-10 -33 -7 33 c-5 22 -13 32 -27 32 -16 0 -19 -7 -19 -50z"/>
<path d="M356 527 c-19 -50 -20 -57 -6 -57 6 0 10 7 10 15 0 20 37 19 48 -1 5
-9 14 -15 20 -13 14 5 -26 99 -43 99 -7 0 -20 -19 -29 -43z m34 -2 c0 -8 -4
-15 -10 -15 -5 0 -7 7 -4 15 4 8 8 15 10 15 2 0 4 -7 4 -15z"/>
<path d="M490 521 c0 -39 4 -51 15 -51 9 0 15 9 16 23 l0 22 16 -22 c8 -13 22
-23 30 -23 12 0 13 3 4 14 -6 7 -10 29 -9 47 3 33 1 34 -34 37 l-38 3 0 -50z
m50 25 c0 -8 -4 -18 -10 -21 -5 -3 -10 3 -10 14 0 12 5 21 10 21 6 0 10 -6 10
-14z"/>
<path d="M730 520 c0 -38 4 -50 15 -50 10 0 15 10 15 28 l1 27 17 -27 c26 -44
42 -35 42 22 0 28 -4 50 -10 50 -5 0 -10 -15 -10 -32 l0 -33 -21 33 c-31 48
-49 42 -49 -18z"/>
<path d="M888 545 c-18 -41 3 -75 47 -75 28 0 38 5 47 25 18 41 -3 75 -47 75
-28 0 -38 -5 -47 -25z m67 -25 c0 -28 -4 -35 -20 -35 -13 0 -21 8 -23 23 -5
34 5 54 25 50 13 -2 18 -13 18 -38z"/>
<path d="M1574 237 c-12 -17 -37 -59 -57 -92 -20 -33 -49 -75 -66 -93 l-30
-32 79 0 c78 0 80 1 95 30 15 30 19 138 6 192 l-6 28 -21 -33z"/>
</g>
</svg>
